<svg width="14" height="26" viewBox="0 0 14 26" fill="none" xmlns="http://www.w3.org/2000/svg">
<path d="M11.355 25.8333C11.0811 25.8343 10.8105 25.7738 10.563 25.6564C10.3156 25.539 10.0976 25.3677 9.92502 25.155L1.07002 14.155C0.800366 13.827 0.652954 13.4155 0.652954 12.9908C0.652954 12.5662 0.800366 12.1547 1.07002 11.8267L10.2367 0.826664C10.5479 0.452266 10.995 0.216822 11.4798 0.172125C11.9646 0.127429 12.4473 0.277143 12.8217 0.58833C13.1961 0.899517 13.4315 1.34669 13.4762 1.83147C13.5209 2.31625 13.3712 2.79893 13.06 3.17333L4.86502 13L12.785 22.8267C13.0092 23.0958 13.1516 23.4235 13.1954 23.771C13.2392 24.1185 13.1825 24.4713 13.0321 24.7876C12.8816 25.1039 12.6437 25.3704 12.3465 25.5558C12.0493 25.7411 11.7052 25.8374 11.355 25.8333Z" fill="white"/>
</svg>
