<svg width="98" height="54" viewBox="0 0 98 54" fill="none" xmlns="http://www.w3.org/2000/svg">
<path d="M81.7904 21.2774C80.4006 21.2774 79.0527 21.4545 77.7677 21.7864C75.4651 18.4755 71.625 16.3063 67.2745 16.3063C65.8605 16.3063 64.5041 16.5384 63.2332 16.9608C61.0913 7.52166 52.6226 0.47036 42.496 0.47036C30.752 0.47036 21.2313 9.95095 21.2313 21.6456C21.2313 21.887 21.242 22.126 21.2492 22.3643C19.7546 21.8978 18.1646 21.6456 16.5155 21.6456C7.78431 21.6456 0.705811 28.693 0.705811 37.3896C0.705811 46.0839 7.78463 53.1321 16.5155 53.1321H63.8516H72.6372H81.7904C90.625 53.1321 97.7863 46.0012 97.7863 37.2047C97.7863 28.4083 90.6243 21.2774 81.7904 21.2774Z" fill="url(#paint0_linear_8_18)"/>
<defs>
<linearGradient id="paint0_linear_8_18" x1="49.2463" y1="0.47036" x2="49.2463" y2="53.1321" gradientUnits="userSpaceOnUse">
<stop stop-color="#fff"/>
<stop offset="1" stop-color="#fff" stop-opacity="0.3"/>
</linearGradient>
</defs>
</svg>
