<svg width="38" height="38" viewBox="0 0 38 38" fill="none" xmlns="http://www.w3.org/2000/svg">
<path d="M11.5979 35.7042C11.0701 35.8889 10.5883 35.8229 10.1523 35.5062C9.71742 35.1896 9.49998 34.7674 9.49998 34.2396V24.1854C8.4972 23.0771 7.71873 21.8104 7.16456 20.3854C6.6104 18.9604 6.33331 17.443 6.33331 15.8333C6.33331 12.2972 7.5604 9.30207 10.0146 6.84791C12.4687 4.39374 15.4639 3.16666 19 3.16666C22.5361 3.16666 25.5312 4.39374 27.9854 6.84791C30.4396 9.30207 31.6666 12.2972 31.6666 15.8333C31.6666 17.443 31.3896 18.9604 30.8354 20.3854C30.2812 21.8104 29.5028 23.0771 28.5 24.1854V34.2396C28.5 34.7674 28.282 35.1896 27.8461 35.5062C27.4112 35.8229 26.9298 35.8889 26.4021 35.7042L19 33.25L11.5979 35.7042ZM19 25.3333C21.6389 25.3333 23.8819 24.4097 25.7291 22.5625C27.5764 20.7153 28.5 18.4722 28.5 15.8333C28.5 13.1944 27.5764 10.9514 25.7291 9.10416C23.8819 7.25693 21.6389 6.33332 19 6.33332C16.3611 6.33332 14.118 7.25693 12.2708 9.10416C10.4236 10.9514 9.49998 13.1944 9.49998 15.8333C9.49998 18.4722 10.4236 20.7153 12.2708 22.5625C14.118 24.4097 16.3611 25.3333 19 25.3333Z" fill="#E2F5F5"/>
<path d="M19 10L21.0808 13.1361L24.7063 14.1459L22.3667 17.0939L22.5267 20.8541L19 19.54L15.4733 20.8541L15.6333 17.0939L13.2937 14.1459L16.9192 13.1361L19 10Z" fill="#E2F5F5"/>
</svg>
